# xmcd
#
# Track frame offsets: 
#        150
#        12765
#        27335
#        39197
#        52692
#        64797
#        77457
#        89975
#        103760
#        116220
#        128752
#        139317
#        149877
#        160755
#        171630
#        184957
#        197545
#        209250
#
# Disc length: 2981 seconds
#
# Revision: 1
# Processed by: cddbd v1.4PL0 Copyright (c) Steve Scherf et al.
# Submitted via: ExactAudioCopy v0.90b4
#
DISCID=060ba312
DTITLE=The Mills Brothers - 1936 to 1940, with Ella and Louis
DYEAR=1937
DGENRE=Jazz
TTITLE0=Cherry
TTITLE1=Dedicated to You
TTITLE2=Boog It
TTITLE3=The Flat Foot Floogie
TTITLE4=My Walking Stick
TTITLE5=Big Boy Blue
TTITLE6=Darling Nelly Gray
TTITLE7=Carry Me Back to Old Virginny
TTITLE8=Rockin Chair Swing
TTITLE9=W.P.A.
TTITLE10=In the Shade of the Old Apple Tree
TTITLE11=Marie
TTITLE12=Old Folks at Home
TTITLE13=Swing for Sale
TTITLE14=The Love Bug Will Bite You
TTITLE15=Long About Midnight
TTITLE16=Swing is the Thing
TTITLE17=The Song is Ended
EXTD=
EXTT0=
EXTT1=
EXTT2=
EXTT3=
EXTT4=
EXTT5=
EXTT6=
EXTT7=
EXTT8=
EXTT9=
EXTT10=
EXTT11=
EXTT12=
EXTT13=
EXTT14=
EXTT15=
EXTT16=
EXTT17=
PLAYORDER=
